<svg width="1000" height="1000" xmlns="http://www.w3.org/2000/svg">

 <g>
  <title>background</title>
  <rect fill="none" id="canvas_background" height="1002" width="1002" y="-1" x="-1"/>
 </g>
 <g>
  <title>Layer 1</title>
  <path stroke="null" id="svg_1" fill="none" d="m278.047089,341.886236l0,999.84906l996.0755,0l0,-999.84906l-996.0755,0z"/>
  <path stroke="null" id="svg_2" fill="#860e86" d="m390.82416,986.34965c0,-154.460048 -48.25045,-318.195619 -16.213189,-468.006206c6.845208,58.151571 2.099608,122.846229 26.808508,176.668743c38.966778,84.874725 141.711378,115.514732 211.760461,159.336313c53.699703,33.592045 184.843325,85.513734 210.182918,-14.666594c29.083218,-114.980125 -66.446512,-227.546417 -109.876782,-321.338461c-27.079268,-58.480975 -41.902987,-122.12982 -70.418744,-180.002387c-24.681338,-50.087464 -65.532089,-102.747162 -68.505587,-162.002148c-2.639507,-52.589497 22.182885,-109.018986 27.033871,-162.002148c-171.632819,60.3206 -347.463232,215.441257 -468.718754,360.019174c-42.629986,50.829074 -96.297101,112.753495 -116.619847,179.987987c-19.249433,63.683044 12.173673,126.797281 41.683785,180.002387c73.565237,132.634759 189.202079,243.710632 332.88336,252.003342m226.984646,-774.010264c10.001916,48.676245 25.033164,83.332105 48.639567,126.001671c105.303041,-49.486256 287.993255,-181.856412 324.26378,-306.004058c-132.429328,26.208348 -249.548541,122.984831 -372.903347,180.002387z"/>
  <path stroke="null" id="svg_3" fill="#ffffff" d="m461.846778,376.119249c52.941511,65.314914 81.414931,143.33321 148.163226,87.614579c-67.055059,-108.615612 -65.817784,-103.709251 -148.163226,-87.614579m-296.326452,262.843319l37.040643,87.614579l-37.040643,-87.614579z"/>
 </g>
</svg>